<svg width="18" height="18" viewBox="0 0 18 18" fill="none" xmlns="http://www.w3.org/2000/svg">
<path d="M5.99999 8.25024C5.85166 8.25024 5.70665 8.29423 5.58331 8.37664C5.45998 8.45905 5.36385 8.57619 5.30708 8.71323C5.25032 8.85028 5.23546 9.00108 5.2644 9.14656C5.29334 9.29205 5.36477 9.42568 5.46966 9.53057C5.57455 9.63546 5.70819 9.70689 5.85367 9.73583C5.99916 9.76477 6.14996 9.74992 6.287 9.69315C6.42405 9.63639 6.54118 9.54026 6.62359 9.41692C6.706 9.29359 6.74999 9.14858 6.74999 9.00024C6.74999 8.80133 6.67097 8.61057 6.53032 8.46991C6.38967 8.32926 6.1989 8.25024 5.99999 8.25024ZM8.99999 8.25024C8.85166 8.25024 8.70665 8.29423 8.58331 8.37664C8.45998 8.45905 8.36385 8.57619 8.30708 8.71323C8.25032 8.85028 8.23546 9.00108 8.2644 9.14656C8.29334 9.29205 8.36477 9.42568 8.46966 9.53057C8.57455 9.63546 8.70819 9.70689 8.85367 9.73583C8.99916 9.76477 9.14996 9.74992 9.287 9.69315C9.42405 9.63639 9.54118 9.54026 9.62359 9.41692C9.70601 9.29359 9.74999 9.14858 9.74999 9.00024C9.74999 8.80133 9.67097 8.61057 9.53032 8.46991C9.38967 8.32926 9.1989 8.25024 8.99999 8.25024ZM12 8.25024C11.8517 8.25024 11.7067 8.29423 11.5833 8.37664C11.46 8.45905 11.3638 8.57619 11.3071 8.71323C11.2503 8.85028 11.2355 9.00108 11.2644 9.14656C11.2933 9.29205 11.3648 9.42568 11.4697 9.53057C11.5746 9.63546 11.7082 9.70689 11.8537 9.73583C11.9992 9.76477 12.15 9.74992 12.287 9.69315C12.424 9.63639 12.5412 9.54026 12.6236 9.41692C12.706 9.29359 12.75 9.14858 12.75 9.00024C12.75 8.80133 12.671 8.61057 12.5303 8.46991C12.3897 8.32926 12.1989 8.25024 12 8.25024ZM8.99999 1.50024C8.01508 1.50024 7.03981 1.69424 6.12987 2.07115C5.21992 2.44806 4.39313 3.0005 3.69669 3.69694C2.29017 5.10347 1.49999 7.01112 1.49999 9.00024C1.49343 10.7321 2.09309 12.4116 3.19499 13.7477L1.69499 15.2477C1.59092 15.3532 1.52043 15.4871 1.4924 15.6326C1.46436 15.7781 1.48006 15.9287 1.53749 16.0652C1.59978 16.2002 1.70077 16.3136 1.82763 16.391C1.95448 16.4685 2.10149 16.5065 2.24999 16.5002H8.99999C10.9891 16.5002 12.8968 15.7101 14.3033 14.3035C15.7098 12.897 16.5 10.9894 16.5 9.00024C16.5 7.01112 15.7098 5.10347 14.3033 3.69694C12.8968 2.29042 10.9891 1.50024 8.99999 1.50024ZM8.99999 15.0002H4.05749L4.75499 14.3027C4.82586 14.2333 4.88223 14.1504 4.92086 14.059C4.95948 13.9676 4.97958 13.8695 4.97999 13.7702C4.97717 13.5724 4.8963 13.3837 4.75499 13.2452C3.77293 12.2643 3.16137 10.9731 3.02451 9.59184C2.88765 8.21053 3.23395 6.8245 4.00441 5.66989C4.77487 4.51527 5.92183 3.66351 7.24988 3.25972C8.57792 2.85593 10.0049 2.9251 11.2877 3.45543C12.5704 3.98576 13.6296 4.94445 14.2848 6.16816C14.94 7.39187 15.1506 8.8049 14.8808 10.1665C14.611 11.5281 13.8775 12.754 12.8051 13.6354C11.7328 14.5168 10.3881 14.9992 8.99999 15.0002Z" fill="black"/>
</svg>
