<svg width="18" height="18" viewBox="0 0 18 18" fill="none" xmlns="http://www.w3.org/2000/svg">
<path d="M14.7075 5.43773C14.6696 5.34504 14.6135 5.26088 14.5425 5.19023L11.07 1.71773C10.9295 1.57804 10.7394 1.49963 10.5412 1.49963C10.3431 1.49963 10.153 1.57804 10.0125 1.71773C9.9422 1.78745 9.88641 1.8704 9.84833 1.9618C9.81025 2.05319 9.79065 2.15122 9.79065 2.25023C9.79065 2.34924 9.81025 2.44727 9.84833 2.53866C9.88641 2.63006 9.9422 2.71301 10.0125 2.78273L12.2025 4.97273H6.2025C5.40685 4.97273 4.64379 5.2888 4.08118 5.85141C3.51857 6.41402 3.2025 7.17708 3.2025 7.97273V15.7502C3.2025 15.9491 3.28152 16.1399 3.42217 16.2806C3.56282 16.4212 3.75359 16.5002 3.9525 16.5002C4.15141 16.5002 4.34218 16.4212 4.48283 16.2806C4.62348 16.1399 4.7025 15.9491 4.7025 15.7502V7.97273C4.7025 7.5749 4.86053 7.19337 5.14184 6.91207C5.42314 6.63076 5.80468 6.47273 6.2025 6.47273H12.2025L10.0125 8.66273C9.90673 8.76763 9.83459 8.90166 9.80529 9.04772C9.77599 9.19378 9.79085 9.34526 9.84797 9.48284C9.9051 9.62042 10.0019 9.73788 10.126 9.82023C10.2502 9.90258 10.396 9.94609 10.545 9.94523C10.7428 9.94241 10.9315 9.86154 11.07 9.72023L14.5425 6.25523C14.6117 6.18028 14.6675 6.09403 14.7075 6.00023C14.7805 5.81983 14.7805 5.61813 14.7075 5.43773Z" fill="black"/>
</svg>
